<?xml version="1.0" encoding="UTF-8" standalone="no"?>
<svg width="89px" height="58px" viewBox="0 0 89 58" version="1.1" xmlns="http://www.w3.org/2000/svg" xmlns:xlink="http://www.w3.org/1999/xlink" xmlns:sketch="http://www.bohemiancoding.com/sketch/ns">
    <!-- Generator: Sketch 3.4.1 (15681) - http://www.bohemiancoding.com/sketch -->
    <title>logo-grey</title>
    <desc>Created with Sketch.</desc>
    <defs>
        <rect id="path-1" x="0" y="0" width="90" height="58"></rect>
    </defs>
    <g id="--Events" stroke="none" stroke-width="1" fill="none" fill-rule="evenodd" sketch:type="MSPage">
        <g id="Desktop-HD/Events---Submit-Event-2" sketch:type="MSArtboardGroup" transform="translate(-60.000000, -72.000000)">
            <g id="Desktop-HD/Header" sketch:type="MSLayerGroup" transform="translate(0.000000, 32.000000)">
                <g id="content" transform="translate(60.000000, 40.000000)">
                    <g id="logo-grey">
                        <mask id="mask-2" sketch:name="bounds" fill="white">
                            <use xlink:href="#path-1"></use>
                        </mask>
                        <use id="bounds" sketch:type="MSShapeGroup" xlink:href="#path-1"></use>
                        <path d="M88.369585,24.9854429 C86.912374,8.4622106 72.7939826,-1.94332456 47.1255425,0.30414568 C23.8278804,2.35336984 -2.07354994,11.9911272 0.131682307,36.8829331 C1.66315036,54.1671306 33.6155145,59.8386037 51.2219471,57.4978011 C73.1373366,54.5895106 90.2055754,45.7113559 88.369585,24.9854429 Z M61.9905928,35.388253 C61.9974053,36.1246929 62.624844,37.0185035 63.6433247,37.0110096 L67.5196829,36.9878469 C69.2534846,36.9714967 70.7229582,35.6518999 70.7154644,34.0863689 C70.7059267,33.2014147 70.7631524,32.0630326 70.7631524,32.0630326 C70.7631524,32.0630326 64.768763,33.2777156 63.6733001,33.6224322 C62.5962311,33.970555 61.9871865,34.6988199 61.9905928,35.388253 Z M23.2719738,26.1435815 C21.9850774,26.1544817 18.7279828,26.205576 18.7279828,26.205576 L18.7933835,36.8427389 C18.7933835,36.8427389 22.2282865,36.8304763 23.3891502,36.82707 C26.2395338,36.8066322 27.7342139,35.6151119 27.7130949,33.0011249 C27.697426,31.3633806 27.6572318,30.0226648 27.6538255,29.7774119 C27.6402003,27.3126203 26.0746694,26.1272313 23.2719738,26.1435815 M33.3559552,32.9180114 C33.1979033,36.6404053 31.0648844,42.2246773 23.3891502,42.2621465 L15.5001822,42.3077908 C13.6975735,42.3180097 13.2942687,42.0836569 13.2758748,40.0092262 L13.1695985,22.728435 C13.1627859,21.0498152 13.5572343,20.795706 15.3612056,20.7861684 L24.3449552,20.7391616 C29.5627105,20.7132738 33.300092,24.8989231 33.3327924,30.2624676 C33.3593615,33.3403914 33.4322561,31.1256215 33.3559552,32.9180114 M51.7390219,42.1088635 L42.9487495,42.152464 C39.9328202,42.1701767 36.1361692,39.4996452 36.1109627,35.0401301 L36.0591871,28.0020534 C36.0373868,23.3701801 39.3060628,20.6560481 42.7825226,20.6369729 C46.3707086,20.6213039 51.3874928,20.5831535 51.3874928,20.5831535 C52.2738095,20.5831535 54.1493128,21.3836317 54.1527191,23.2673101 C54.168388,25.1530323 52.5265562,26.0189113 51.3363984,26.0264051 L43.794872,26.0652369 C42.772985,26.0734119 41.7286164,26.4569602 41.7395165,28.111736 L41.783117,34.8037336 C41.7906109,35.747276 42.8962927,36.787557 43.813266,36.787557 L51.9917686,36.7473628 C53.8747658,36.7289688 54.8053643,38.3217501 54.8101331,39.4335632 C54.8196707,40.5590015 53.9892172,42.0966008 51.7390219,42.1088635 M77.3992869,41.9610305 C74.3247694,41.9848745 73.1155364,40.3791493 73.1155364,40.3791493 C72.6720374,40.9445935 71.1732697,41.9610305 69.2384969,41.9766994 C68.1982159,41.9848745 64.919321,42.0346064 63.6658062,42.0386939 C60.4121179,42.0598129 56.6890428,39.8511744 56.6624737,35.557205 C56.6413547,31.5936458 59.5108135,30.0308398 61.0490942,29.4340578 C62.5894186,28.8263757 70.645976,27.5687733 70.645976,27.5687733 C70.645976,26.9099968 70.0110435,25.9582793 69.1097392,25.9582793 L60.7670533,26.01278 C59.0523269,26.0189113 57.986158,24.5800943 57.9827518,23.2434661 C57.9718516,21.9184192 59.1109151,20.5477281 60.679171,20.5368279 C60.679171,20.5368279 64.0840987,20.5197965 68.4659503,20.4918649 C73.375777,20.4639333 75.8242183,24.4111424 75.8487436,27.60488 L75.8753127,33.6735265 C75.8862128,35.7002692 76.4720947,36.2418693 77.5566575,36.3106764 C79.1535263,36.4026462 80.5105923,37.1288673 80.5657742,39.3463622 C80.6011996,41.3397232 78.4436555,41.9610305 77.3992869,41.9610305" id="DCA-mark" fill="#333333" sketch:type="MSShapeGroup" mask="url(#mask-2)"></path>
                    </g>
                </g>
            </g>
        </g>
    </g>
</svg>