<?xml version="1.0" encoding="UTF-8" standalone="no"?>
<svg width="12px" height="16px" viewBox="0 0 12 16" version="1.1" xmlns="http://www.w3.org/2000/svg" xmlns:xlink="http://www.w3.org/1999/xlink" xmlns:sketch="http://www.bohemiancoding.com/sketch/ns">
    <!-- Generator: Sketch 3.4.3 (16044) - http://www.bohemiancoding.com/sketch -->
    <title>icon-16x16-search</title>
    <desc>Created with Sketch.</desc>
    <defs></defs>
    <g id="Grants-&amp;-Calls" stroke="none" stroke-width="1" fill="none" fill-rule="evenodd" sketch:type="MSPage">
        <g id="Desktop-HD/Grant-Detail-Page" sketch:type="MSArtboardGroup" transform="translate(-968.000000, -1785.000000)" fill="#333333">
            <g id="content" sketch:type="MSLayerGroup" transform="translate(0.000000, 170.000000)">
                <g id="section-1" transform="translate(150.000000, 105.000000)" sketch:type="MSShapeGroup">
                    <g id="col-1">
                        <g id="container" transform="translate(0.000000, 1494.000000)">
                            <g id="share-btn" transform="translate(800.000000, 0.000000)">
                                <g id="icon-16x16-search" transform="translate(16.000000, 16.000000)">
                                    <path d="M12,13.5023012 C12,13.7771727 11.7692032,14 11.4995642,14 L4.50043583,14 C4.22405275,14 4,13.7851562 4,13.5023012 L4,9.49769878 C4,9.22282734 4.23193359,9 4.5,9 C4.77614237,9 5,8.78596497 5,8.49531555 L5,7.50468445 C5,7.22595492 4.7842474,7 4.50461102,7 L2.49538898,7 C2.2217932,7 2,7.22247314 2,7.50966585 L2,15.4903342 C2,15.7718148 2.22900057,16 2.50034732,16 L13.4996527,16 C13.7759869,16 14,15.7775269 14,15.4903342 L14,7.50966585 C14,7.22818517 13.7842474,7 13.504611,7 L11.495389,7 C11.2217932,7 11,7.21403503 11,7.50468445 L11,8.49531555 C11,8.77404508 11.2319336,9 11.5,9 C11.7761424,9 12,9.21484375 12,9.49769878 L12,13.5023012 Z M4.97008473,5.504789 C4.77603048,5.69884325 4.46698438,5.70442125 4.26742867,5.50486553 L3.73257133,4.9700082 C3.53855935,4.77599622 3.53495459,4.46504541 3.72843613,4.27156387 L7.65284544,0.347154563 C7.84457361,0.155426392 8.15367303,0.153673028 8.34715456,0.347154563 L12.2715639,4.27156387 C12.463292,4.46329204 12.4669844,4.77045248 12.2674287,4.9700082 L11.7325713,5.50486553 C11.5385594,5.69887751 11.225039,5.69991277 11.0299153,5.504789 L9.3513663,3.82624003 C9.15731205,3.63218578 9,3.70290027 9,3.98262874 L9,11.492245 C9,11.7726703 8.78596497,12 8.49531555,12 L7.50468445,12 C7.22595492,12 7,11.7719735 7,11.492245 L7,3.98262874 C7,3.70220339 6.84375747,3.63111627 6.6486337,3.82624003 L4.97008473,5.504789 Z" id="Rectangle-360"></path>
                                </g>
                            </g>
                        </g>
                    </g>
                </g>
            </g>
        </g>
    </g>
</svg>