<?xml version="1.0" encoding="UTF-8" standalone="no"?>
<svg width="16px" height="16px" viewBox="0 0 16 16" version="1.1" xmlns="http://www.w3.org/2000/svg" xmlns:xlink="http://www.w3.org/1999/xlink" xmlns:sketch="http://www.bohemiancoding.com/sketch/ns">
    <!-- Generator: Sketch 3.4.4 (17249) - http://www.bohemiancoding.com/sketch -->
    <title>icon-16x16-search</title>
    <desc>Created with Sketch.</desc>
    <defs></defs>
    <g id="About" stroke="none" stroke-width="1" fill="none" fill-rule="evenodd" sketch:type="MSPage">
        <g id="Desktop-HD/City-Council-District-Detail-Page" sketch:type="MSArtboardGroup" transform="translate(-1354.000000, -93.000000)">
            <g id="Desktop-HD/Header" sketch:type="MSLayerGroup" transform="translate(0.000000, 32.000000)">
                <g id="content" transform="translate(60.000000, 40.000000)" sketch:type="MSShapeGroup">
                    <g id="search" transform="translate(1284.000000, 11.000000)">
                        <g id="icon-16x16-search" transform="translate(10.000000, 10.000000)">
                            <rect id="bounds" x="0" y="0" width="16" height="16"></rect>
                            <path d="M9.47653436,10.8907479 C8.49571549,11.589209 7.29583043,12 6,12 C2.6862915,12 0,9.3137085 0,6 C0,2.6862915 2.6862915,0 6,0 C9.3137085,0 12,2.6862915 12,6 C12,7.29583043 11.589209,8.49571549 10.8907479,9.47653436 L14.9973873,13.5831737 C15.3881417,13.9739281 15.3905243,14.6094757 15,15 C14.606753,15.393247 13.975141,15.3893545 13.5831737,14.9973873 L9.47653436,10.8907479 Z M6,10 C8.209139,10 10,8.209139 10,6 C10,3.790861 8.209139,2 6,2 C3.790861,2 2,3.790861 2,6 C2,8.209139 3.790861,10 6,10 Z" fill="#333333"></path>
                        </g>
                    </g>
                </g>
            </g>
        </g>
    </g>
</svg>