<?xml version="1.0" encoding="UTF-8" standalone="no"?>
<svg width="16px" height="14px" viewBox="0 0 16 14" version="1.1" xmlns="http://www.w3.org/2000/svg" xmlns:xlink="http://www.w3.org/1999/xlink" xmlns:sketch="http://www.bohemiancoding.com/sketch/ns">
    <!-- Generator: Sketch 3.4.2 (15857) - http://www.bohemiancoding.com/sketch -->
    <title>icon-twitter</title>
    <desc>Created with Sketch.</desc>
    <defs></defs>
    <g id="Homepage" stroke="none" stroke-width="1" fill="none" fill-rule="evenodd" sketch:type="MSPage">
        <g id="Desktop-HD/Homepage" sketch:type="MSArtboardGroup" transform="translate(-1096.000000, -2119.000000)" fill="#595959">
            <g id="Desktop-HD/Footer" sketch:type="MSLayerGroup" transform="translate(0.000000, 1800.000000)">
                <g id="container-1" transform="translate(150.000000, 262.000000)" sketch:type="MSShapeGroup">
                    <g id="connect" transform="translate(877.000000, 0.000000)">
                        <g id="list" transform="translate(0.000000, 40.120846)">
                            <g id="bt-twitter" transform="translate(53.000000, 0.000000)">
                                <g id="icon-16x16-twitter" transform="translate(16.000000, 16.048338)">
                                    <path d="M16,3.04707657 C15.4118101,3.30932029 14.7787995,3.48621264 14.1146093,3.5653744 C14.7927654,3.15816366 15.3127499,2.51314184 15.5579644,1.74367641 C14.9236547,2.12124222 14.2214644,2.39521361 13.4734791,2.54311255 C12.874896,1.90330302 12.0216796,1.50325919 11.0775227,1.50325919 C9.2648844,1.50325919 7.79522157,2.97736209 7.79522157,4.79580239 C7.79522157,5.05348535 7.82412764,5.30465294 7.88031586,5.54604747 C5.15210198,5.40857312 2.73308568,4.09800606 1.11402066,2.10593109 C0.831455656,2.59197784 0.669711548,3.15751212 0.669711548,3.7614871 C0.669711548,4.9036318 1.24913221,5.91155984 2.12995554,6.50185253 C1.59210767,6.4845868 1.08576416,6.33636209 0.643078984,6.08975526 C0.642754197,6.10343754 0.642754197,6.11744559 0.642754197,6.13145364 C0.642754197,7.72641669 1.77431338,9.05685564 3.27613016,9.35982043 C3.00071047,9.43474721 2.71067535,9.47514251 2.4112214,9.47514251 C2.19946004,9.47514251 1.99386964,9.45461909 1.79347583,9.41585263 C2.21147717,10.7238135 3.42358362,11.6760352 4.85979335,11.7024224 C3.73635386,12.5855811 2.3212553,13.1120231 0.783062339,13.1120231 C0.518360636,13.1120231 0.256906806,13.0963862 0,13.065764 C1.45309867,14.0003941 3.17836916,14.5450792 5.03193066,14.5450792 C11.0700526,14.5450792 14.3715161,9.52824279 14.3715161,5.17727742 C14.3715161,5.03459077 14.3685931,4.8922299 14.3624221,4.75084633 C15.0035524,4.28760338 15.5602379,3.70740951 16,3.04707657 L16,3.04707657 Z" id="icon-twitter"></path>
                                </g>
                            </g>
                        </g>
                    </g>
                </g>
            </g>
        </g>
    </g>
</svg>