<?xml version="1.0" encoding="UTF-8" standalone="no"?>
<svg width="12px" height="16px" viewBox="0 0 12 16" version="1.1" xmlns="http://www.w3.org/2000/svg" xmlns:xlink="http://www.w3.org/1999/xlink" xmlns:sketch="http://www.bohemiancoding.com/sketch/ns">
    <!-- Generator: Sketch 3.4.4 (17249) - http://www.bohemiancoding.com/sketch -->
    <title>icon-16x16-location</title>
    <desc>Created with Sketch.</desc>
    <defs></defs>
    <g id="About" stroke="none" stroke-width="1" fill="none" fill-rule="evenodd" sketch:type="MSPage">
        <g id="Desktop-HD/City-Council-District-Detail-Page" sketch:type="MSArtboardGroup" transform="translate(-1220.000000, -93.000000)">
            <g id="Desktop-HD/Header" sketch:type="MSLayerGroup" transform="translate(0.000000, 32.000000)">
                <g id="content" transform="translate(60.000000, 40.000000)" sketch:type="MSShapeGroup">
                    <g id="in-your-area-btn" transform="translate(1144.000000, 11.000000)">
                        <g id="icon-16x16-location" transform="translate(14.000000, 10.000000)">
                            <rect id="bounds" fill-opacity="0" fill="#D8D8D8" x="0" y="0" width="16" height="16"></rect>
                            <path d="M7.34647307,15.2431407 C7.70740603,15.6611426 8.28939247,15.6697432 8.65352693,15.2431407 C8.65352693,15.2431407 14,9.3137085 14,6 C14,2.6862915 11.3137085,0 8,0 C4.6862915,0 2,2.6862915 2,6 C2,9.3137085 7.34647307,15.2431407 7.34647307,15.2431407 Z M8,8 C9.1045695,8 10,7.1045695 10,6 C10,4.8954305 9.1045695,4 8,4 C6.8954305,4 6,4.8954305 6,6 C6,7.1045695 6.8954305,8 8,8 Z" id="Oval-26" fill="#333333"></path>
                        </g>
                    </g>
                </g>
            </g>
        </g>
    </g>
</svg>