<?xml version="1.0" encoding="UTF-8" standalone="no"?>
<svg width="16px" height="17px" viewBox="0 0 16 17" version="1.1" xmlns="http://www.w3.org/2000/svg" xmlns:xlink="http://www.w3.org/1999/xlink" xmlns:sketch="http://www.bohemiancoding.com/sketch/ns">
    <!-- Generator: Sketch 3.4.2 (15857) - http://www.bohemiancoding.com/sketch -->
    <title>icon-instagram</title>
    <desc>Created with Sketch.</desc>
    <defs></defs>
    <g id="Homepage" stroke="none" stroke-width="1" fill="none" fill-rule="evenodd" sketch:type="MSPage">
        <g id="Desktop-HD/Homepage" sketch:type="MSArtboardGroup" transform="translate(-1149.000000, -2118.000000)" fill="#595959">
            <g id="Desktop-HD/Footer" sketch:type="MSLayerGroup" transform="translate(0.000000, 1800.000000)">
                <g id="container-1" transform="translate(150.000000, 262.000000)" sketch:type="MSShapeGroup">
                    <g id="connect" transform="translate(877.000000, 0.000000)">
                        <g id="list" transform="translate(0.000000, 40.120846)">
                            <g id="bt-instagram" transform="translate(106.000000, 0.000000)">
                                <g id="icon-16x16-instagram" transform="translate(16.000000, 16.048338)">
                                    <path d="M12.9078586,0.000323711843 L3.09214136,0.000323711843 C1.3871228,0.000323711843 0,1.3913135 0,3.10148318 L0,6.37744703 L0,12.9471789 C0,14.6573486 1.3871228,16.0483384 3.09214136,16.0483384 L12.9081814,16.0483384 C14.6131999,16.0483384 16,14.6573486 16,12.9471789 L16,6.37712332 L16,3.10115946 C15.9996773,1.39098979 14.6128772,0.000323711843 12.9078586,0.000323711843 L12.9078586,0.000323711843 Z M13.7947394,1.84968948 L14.1484589,1.84839463 L14.1484589,2.20156425 L14.1484589,4.56854525 L11.4455382,4.57728547 L11.4361788,1.85745856 L13.7947394,1.84968948 L13.7947394,1.84968948 Z M5.71631435,6.37712332 C6.2288204,5.6659284 7.06019041,5.19945964 8,5.19945964 C8.93980959,5.19945964 9.7711796,5.6659284 10.2830402,6.37712332 C10.6164273,6.84132611 10.8162014,7.40911668 10.8162014,8.02416918 C10.8162014,9.58154686 9.55171857,10.848555 7.99967726,10.848555 C6.44666774,10.848555 5.18347588,9.58154686 5.18347588,8.02416918 C5.18379861,7.40911668 5.38292722,6.84132611 5.71631435,6.37712332 L5.71631435,6.37712332 Z M14.4408585,12.9468552 C14.4408585,13.7953039 13.7531063,14.4844865 12.9078586,14.4844865 L3.09214136,14.4844865 C2.24657092,14.4844865 1.55881878,13.7953039 1.55881878,12.9468552 L1.55881878,6.37712332 L3.94707116,6.37712332 C3.74084234,6.88599834 3.62497983,7.44181158 3.62497983,8.02416918 C3.62497983,10.4432678 5.58721962,12.4127307 8,12.4127307 C10.4124576,12.4127307 12.3746974,10.4432678 12.3746974,8.02416918 C12.3746974,7.44181158 12.2581894,6.88599834 12.0519606,6.37712332 L14.4408585,6.37712332 L14.4408585,12.9468552 L14.4408585,12.9468552 Z" id="icon-instagram"></path>
                                </g>
                            </g>
                        </g>
                    </g>
                </g>
            </g>
        </g>
    </g>
</svg>