<?xml version="1.0" encoding="UTF-8" standalone="no"?>
<svg width="89px" height="58px" viewBox="0 0 89 58" version="1.1" xmlns="http://www.w3.org/2000/svg" xmlns:xlink="http://www.w3.org/1999/xlink" xmlns:sketch="http://www.bohemiancoding.com/sketch/ns">
    <!-- Generator: Sketch 3.5.1 (25234) - http://www.bohemiancoding.com/sketch -->
    <title>DCA-logo-teal</title>
    <desc>Created with Sketch.</desc>
    <defs></defs>
    <g id="Style-Guide-&amp;-images" stroke="none" stroke-width="1" fill="none" fill-rule="evenodd" sketch:type="MSPage">
        <g id="Desktop-HD/Style-Guide" sketch:type="MSArtboardGroup" transform="translate(-676.000000, -1539.000000)" fill="#97D2CA">
            <path d="M764.369585,1563.98544 C762.912374,1547.46221 748.793983,1537.05668 723.125543,1539.30415 C699.82788,1541.35337 673.92645,1550.99113 676.131682,1575.88293 C677.66315,1593.16713 709.615515,1598.8386 727.221947,1596.4978 C749.137337,1593.58951 766.205575,1584.71136 764.369585,1563.98544 Z M737.990593,1574.38825 C737.997405,1575.12469 738.624844,1576.0185 739.643325,1576.01101 L743.519683,1575.98785 C745.253485,1575.9715 746.722958,1574.6519 746.715464,1573.08637 C746.705927,1572.20141 746.763152,1571.06303 746.763152,1571.06303 C746.763152,1571.06303 740.768763,1572.27772 739.6733,1572.62243 C738.596231,1572.97056 737.987186,1573.69882 737.990593,1574.38825 Z M699.271974,1565.14358 C697.985077,1565.15448 694.727983,1565.20558 694.727983,1565.20558 L694.793384,1575.84274 C694.793384,1575.84274 698.228287,1575.83048 699.38915,1575.82707 C702.239534,1575.80663 703.734214,1574.61511 703.713095,1572.00112 C703.697426,1570.36338 703.657232,1569.02266 703.653825,1568.77741 C703.6402,1566.31262 702.074669,1565.12723 699.271974,1565.14358 M709.355955,1571.91801 C709.197903,1575.64041 707.064884,1581.22468 699.38915,1581.26215 L691.500182,1581.30779 C689.697573,1581.31801 689.294269,1581.08366 689.275875,1579.00923 L689.169598,1561.72844 C689.162786,1560.04982 689.557234,1559.79571 691.361206,1559.78617 L700.344955,1559.73916 C705.56271,1559.71327 709.300092,1563.89892 709.332792,1569.26247 C709.359361,1572.34039 709.432256,1570.12562 709.355955,1571.91801 M727.739022,1581.10886 L718.94875,1581.15246 C715.93282,1581.17018 712.136169,1578.49965 712.110963,1574.04013 L712.059187,1567.00205 C712.037387,1562.37018 715.306063,1559.65605 718.782523,1559.63697 C722.370709,1559.6213 727.387493,1559.58315 727.387493,1559.58315 C728.273809,1559.58315 730.149313,1560.38363 730.152719,1562.26731 C730.168388,1564.15303 728.526556,1565.01891 727.336398,1565.02641 L719.794872,1565.06524 C718.772985,1565.07341 717.728616,1565.45696 717.739517,1567.11174 L717.783117,1573.80373 C717.790611,1574.74728 718.896293,1575.78756 719.813266,1575.78756 L727.991769,1575.74736 C729.874766,1575.72897 730.805364,1577.32175 730.810133,1578.43356 C730.819671,1579.559 729.989217,1581.0966 727.739022,1581.10886 M753.399287,1580.96103 C750.324769,1580.98487 749.115536,1579.37915 749.115536,1579.37915 C748.672037,1579.94459 747.17327,1580.96103 745.238497,1580.9767 C744.198216,1580.98487 740.919321,1581.03461 739.665806,1581.03869 C736.412118,1581.05981 732.689043,1578.85117 732.662474,1574.5572 C732.641355,1570.59365 735.510814,1569.03084 737.049094,1568.43406 C738.589419,1567.82638 746.645976,1566.56877 746.645976,1566.56877 C746.645976,1565.91 746.011044,1564.95828 745.109739,1564.95828 L736.767053,1565.01278 C735.052327,1565.01891 733.986158,1563.58009 733.982752,1562.24347 C733.971852,1560.91842 735.110915,1559.54773 736.679171,1559.53683 C736.679171,1559.53683 740.084099,1559.5198 744.46595,1559.49186 C749.375777,1559.46393 751.824218,1563.41114 751.848744,1566.60488 L751.875313,1572.67353 C751.886213,1574.70027 752.472095,1575.24187 753.556657,1575.31068 C755.153526,1575.40265 756.510592,1576.12887 756.565774,1578.34636 C756.6012,1580.33972 754.443655,1580.96103 753.399287,1580.96103" id="DCA-logo-teal" sketch:type="MSShapeGroup"></path>
        </g>
    </g>
</svg>