<?xml version="1.0" encoding="UTF-8" standalone="no"?>
<svg width="89px" height="59px" viewBox="0 0 89 59" version="1.1" xmlns="http://www.w3.org/2000/svg" xmlns:xlink="http://www.w3.org/1999/xlink" xmlns:sketch="http://www.bohemiancoding.com/sketch/ns">
    <!-- Generator: Sketch 3.4.1 (15681) - http://www.bohemiancoding.com/sketch -->
    <title>logo-footer</title>
    <desc>Created with Sketch.</desc>
    <defs>
        <rect id="path-1" x="0" y="0" width="89" height="59"></rect>
    </defs>
    <g id="Homepage" stroke="none" stroke-width="1" fill="none" fill-rule="evenodd" sketch:type="MSPage">
        <g id="Desktop-HD/Homepage" sketch:type="MSArtboardGroup" transform="translate(-1027.000000, -2213.000000)">
            <g id="Desktop-HD/Footer" sketch:type="MSLayerGroup" transform="translate(0.000000, 1800.000000)">
                <g id="container-1" transform="translate(150.000000, 262.000000)">
                    <g id="contact" transform="translate(877.000000, 118.356495)">
                        <g id="logo-footer" transform="translate(0.000000, 33.120846)">
                            <mask id="mask-2" sketch:name="bounds" fill="white">
                                <use xlink:href="#path-1"></use>
                            </mask>
                            <use id="bounds" sketch:type="MSShapeGroup" xlink:href="#path-1"></use>
                            <path d="M88.3646183,25.2230015 C86.9074893,8.54266829 72.7898913,-1.96180146 47.1228939,0.307037462 C23.8265412,2.3757454 -2.0734334,12.1051374 0.131674906,37.2336117 C1.66305689,54.6821453 33.6136252,60.4075421 51.2190682,58.0444834 C73.1332261,55.1085412 90.2005055,46.1459741 88.3646183,25.2230015 Z M61.9871087,35.7247203 C61.9939209,36.4681622 62.6213243,37.370471 63.6397478,37.3629059 L67.5158881,37.3395229 C69.2495923,37.3230173 70.7189833,35.9908739 70.7114899,34.4104581 C70.7019528,33.5170898 70.7591753,32.3678841 70.7591753,32.3678841 C70.7591753,32.3678841 64.7651228,33.5941162 63.6697214,33.9421103 C62.592713,34.2935431 61.9837026,35.0287321 61.9871087,35.7247203 Z M23.2706659,26.3921516 C21.9838418,26.4031554 18.7269302,26.4547355 18.7269302,26.4547355 L18.7923273,37.1930353 C18.7923273,37.1930353 22.2270372,37.1806561 23.3878357,37.1772174 C26.2380591,37.1565853 27.7326552,35.9537362 27.7115374,33.3148957 C27.6958693,31.6615799 27.6556774,30.3081167 27.6522713,30.060532 C27.6386469,27.5723055 26.0732039,26.375646 23.2706659,26.3921516 M33.3540805,33.2309919 C33.1960375,36.9887779 31.0631385,42.6261446 23.3878357,42.66397 L15.4993111,42.7100483 C13.6968036,42.7203643 13.2935215,42.4837834 13.2751286,40.3896292 L13.1688583,22.9445343 C13.1620461,21.2499544 13.5564724,20.9934291 15.3603422,20.9838008 L24.343587,20.9363471 C29.561049,20.9102131 33.2982205,25.1356591 33.330919,30.5501995 C33.3574866,33.6573879 33.4303771,31.4215602 33.3540805,33.2309919 M51.736114,42.5092296 L42.9463357,42.5532446 C39.9305759,42.5711257 36.1341383,39.8752032 36.1089331,35.3732876 L36.0571604,28.2682936 C36.0353614,23.592381 39.3038537,20.8524434 42.7801181,20.8331868 C46.3681024,20.8173688 51.3846046,20.7788557 51.3846046,20.7788557 C52.2708715,20.7788557 54.1462695,21.5869447 54.1496756,23.488533 C54.1653436,25.3921844 52.523604,26.266296 51.3335131,26.2738611 L43.7924106,26.313062 C42.770581,26.3213149 41.7262711,26.7085099 41.7371706,28.379019 L41.7807687,35.1346434 C41.7882621,36.0871569 42.8938818,37.1373287 43.8108035,37.1373287 L51.9888465,37.0967524 C53.8717379,37.0781835 54.8022841,38.6861087 54.8070526,39.8084928 C54.8165897,40.9446316 53.9861828,42.4968503 51.736114,42.5092296 M77.3949368,42.359991 C74.3205921,42.3840617 73.1114271,40.7630695 73.1114271,40.7630695 C72.667953,41.3338899 71.1692696,42.359991 69.2346055,42.3758089 C68.194383,42.3840617 64.9156724,42.4342664 63.662228,42.4383928 C60.4087225,42.4597126 56.6858567,40.2300746 56.6592891,35.8952787 C56.6381713,31.8940344 59.5074688,30.3163695 61.045663,29.7139134 C62.5859008,29.1004534 70.6420055,27.830894 70.6420055,27.830894 C70.6420055,27.1658539 70.0071087,26.2050876 69.105855,26.2050876 L60.763638,26.2601064 C59.0490079,26.266296 57.982899,24.813799 57.9794929,23.4644622 C57.9685934,22.126817 59.1075928,20.7430934 60.6757607,20.7320897 C60.6757607,20.7320897 64.0804969,20.7148963 68.4621023,20.6866991 C73.371653,20.658502 75.8199568,24.6432406 75.8444807,27.8673439 L75.8710482,33.9936904 C75.8819478,36.0397031 76.4677967,36.5864527 77.5522986,36.655914 C79.1490776,36.7487583 80.5060674,37.4818841 80.5612462,39.7204627 C80.5966696,41.7327764 78.4392467,42.359991 77.3949368,42.359991" id="DCA-mark" fill="#595959" sketch:type="MSShapeGroup" mask="url(#mask-2)"></path>
                        </g>
                    </g>
                </g>
            </g>
        </g>
    </g>
</svg>